<?xml version="1.0" standalone="no"?>
<!DOCTYPE svg PUBLIC "-//W3C//DTD SVG 20010904//EN" "http://www.w3.org/TR/2001/REC-SVG-20010904/DTD/svg10.dtd">
<svg version="1.0" xmlns="http://www.w3.org/2000/svg" width="642.000000pt" height="360.000000pt"
    viewBox="0 0 642.000000 360.000000" preserveAspectRatio="xMidYMid meet">

    <g transform="translate(0.000000,360.000000) scale(0.100000,-0.100000)" fill="white" stroke="none">
        <path d="M0 1800 l0 -1800 3210 0 3210 0 0 1800 0 1800 -3210 0 -3210 0 0
-1800z m3356 1378 c82 -57 195 -134 252 -172 l102 -69 0 -451 0 -451 -43 -24
c-23 -13 -91 -56 -152 -96 -256 -167 -306 -197 -318 -191 -6 3 -51 32 -99 63
-47 32 -154 103 -237 158 l-151 100 0 191 0 190 38 28 c57 42 254 180 377 265
164 113 158 102 85 147 l-62 38 28 23 c16 13 34 23 39 23 14 0 235 -148 235
-158 0 -4 -56 -44 -123 -89 -361 -242 -437 -295 -437 -303 0 -9 64 -54 262
-184 l59 -38 184 123 184 124 1 73 c0 56 -3 71 -12 66 -7 -4 -59 -39 -116 -76
l-103 -69 -44 28 c-24 15 -44 31 -45 35 0 7 34 32 208 153 l113 78 -3 80 -3
81 -183 123 -183 123 -184 -122 -185 -123 0 -97 0 -98 -62 -45 c-34 -25 -65
-45 -68 -45 -4 0 -7 76 -8 169 l-2 169 87 62 c49 34 162 112 253 175 91 62
165 114 166 114 1 1 68 -45 150 -101z m-964 -1679 c37 -19 58 -41 58 -60 0
-16 -6 -18 -47 -12 -27 3 -53 10 -60 15 -21 17 -113 11 -134 -8 -24 -22 -24
-56 0 -78 23 -21 132 -19 139 3 3 10 -4 12 -37 6 -39 -6 -41 -6 -41 19 l0 26
95 0 95 0 0 -65 0 -65 -30 0 c-18 0 -33 6 -36 15 -5 13 -10 12 -37 -1 -41 -22
-136 -29 -180 -15 -20 7 -48 26 -63 44 -22 26 -25 38 -21 75 6 54 36 87 96
106 52 17 166 14 203 -5z m347 10 c36 -7 58 -19 76 -41 14 -16 23 -34 19 -39
-9 -15 -83 -10 -110 8 -39 25 -113 22 -136 -6 -24 -30 -23 -37 8 -68 22 -22
32 -25 70 -20 25 2 53 12 63 21 19 18 96 22 106 6 11 -17 -25 -58 -66 -74 -47
-19 -155 -21 -211 -4 -22 6 -48 23 -59 36 -25 32 -26 111 -1 141 36 45 139 62
241 40z m419 -13 c30 -15 52 -43 52 -64 0 -13 -74 -4 -127 15 -72 26 -133 4
-133 -48 0 -48 63 -73 138 -53 36 10 25 24 -18 24 -33 0 -40 3 -40 20 0 19 7
20 90 20 50 0 90 -3 91 -7 0 -5 1 -33 2 -63 l1 -55 -32 -3 c-24 -2 -32 1 -32
12 0 19 -8 20 -40 1 -33 -19 -140 -19 -188 0 -102 41 -92 183 16 214 51 14
182 7 220 -13z m282 -66 l0 -80 39 0 c21 0 59 -3 85 -6 43 -6 46 -9 46 -35 l0
-29 -135 0 -135 0 0 115 0 115 50 0 50 0 0 -80z m562 26 c-3 -34 -2 -38 15
-31 51 22 135 11 168 -21 21 -21 19 -77 -3 -104 -22 -27 -115 -40 -151 -20
-16 8 -26 8 -35 1 -7 -6 -29 -8 -50 -4 l-37 6 3 109 3 109 45 -3 45 -3 -3 -39z
m-145 -31 c18 -12 23 -25 23 -55 0 -21 4 -41 9 -44 5 -3 7 -15 4 -26 -4 -16
-14 -20 -48 -20 -24 0 -45 4 -47 10 -2 6 -20 4 -46 -5 -63 -22 -132 2 -132 45
0 29 28 43 104 56 52 8 66 13 52 19 -11 5 -38 3 -63 -3 -24 -7 -52 -12 -63
-12 -22 0 -27 24 -8 36 43 27 173 26 215 -1z m451 -141 l3 -30 -46 5 c-25 4
-46 9 -45 14 0 4 0 16 0 28 0 18 5 20 43 17 39 -3 42 -5 45 -34z m-1711 -106
c31 -29 31 -81 1 -102 -48 -34 -104 -14 -114 40 -13 68 62 110 113 62z m112
-18 l18 -40 12 40 c11 36 33 52 44 33 3 -5 8 -36 12 -70 5 -44 4 -63 -4 -63
-12 0 -15 6 -26 55 l-7 30 -12 -38 c-13 -46 -28 -49 -40 -8 -10 36 -26 41 -26
9 0 -27 -16 -55 -26 -46 -3 4 -3 37 1 73 8 77 27 86 54 25z m149 -33 c2 -55 0
-67 -13 -67 -12 0 -15 14 -15 71 0 52 3 70 13 67 7 -3 13 -29 15 -71z m152 3
c0 -84 -9 -88 -62 -28 l-38 43 0 -42 c0 -43 -13 -57 -24 -27 -3 9 -6 38 -6 65
0 42 3 49 19 49 11 0 29 -13 41 -30 28 -39 40 -38 40 5 0 24 5 35 15 35 12 0
15 -14 15 -70z m133 52 c21 -23 11 -35 -15 -21 -10 6 -27 7 -37 4 -44 -14 -30
-75 17 -75 26 1 26 1 8 15 -25 19 -9 38 25 33 53 -7 17 -78 -39 -78 -38 0 -60
19 -68 55 -12 64 68 113 109 67z m197 3 c0 -8 -9 -15 -20 -15 -28 0 -25 -18 5
-32 50 -23 13 -98 -39 -79 -27 11 -23 25 9 29 32 4 32 20 0 32 -27 10 -34 47
-13 68 17 17 58 15 58 -3z m147 0 c66 -47 8 -150 -70 -123 -51 18 -62 74 -22
113 27 28 61 32 92 10z m167 -6 c59 -46 14 -130 -64 -119 -50 7 -68 83 -28
120 28 26 58 26 92 -1z m-1194 -4 c0 -10 -10 -15 -34 -15 -31 0 -46 -13 -46
-40 0 -20 32 -40 56 -34 17 4 24 2 24 -9 0 -19 -45 -30 -70 -17 -43 23 -50 97
-12 120 27 15 82 12 82 -5z m1309 -22 l30 -38 1 38 c0 26 4 37 15 37 12 0 15
-14 15 -65 0 -78 -10 -82 -62 -22 l-37 42 -1 -42 c0 -24 -4 -43 -10 -43 -6 0
-10 28 -10 65 0 78 13 84 59 28z m129 -96 c2 -12 -3 -17 -17 -17 -12 0 -21 6
-21 13 0 31 32 34 38 4z m77 -7 c0 -8 -8 -16 -17 -18 -13 -2 -18 3 -18 18 0
15 5 20 18 18 9 -2 17 -10 17 -18z m73 -3 c2 -12 -3 -17 -17 -17 -12 0 -21 6
-21 13 0 31 32 34 38 4z" />
        <path d="M2840 2193 l0 -79 63 -41 c34 -23 116 -78 181 -123 66 -44 124 -79
130 -78 6 2 91 56 189 121 l177 117 0 80 0 80 -57 -37 c-111 -70 -268 -176
-289 -194 -20 -19 -21 -19 -64 12 -42 31 -293 199 -317 213 -10 5 -13 -11 -13
-71z" />
        <path d="M4023 1390 c-46 -18 -22 -70 32 -70 50 0 71 33 39 64 -17 18 -38 19
-71 6z" />
        <path d="M3741 1351 c-32 -9 -40 -31 -11 -31 26 0 60 17 60 30 0 11 -13 11
-49 1z" />
        <path d="M2520 1150 c-15 -28 4 -60 36 -60 28 0 39 19 30 55 -8 31 -50 35 -66
5z" />
        <path d="M3416 1154 c-9 -8 -16 -22 -16 -29 0 -13 26 -45 36 -45 22 0 44 25
44 49 0 40 -36 54 -64 25z" />
        <path d="M3582 1158 c-18 -18 -14 -56 7 -68 26 -14 50 -3 57 26 11 42 -34 72
-64 42z" />
    </g>
</svg>